<?xml version="1.0" encoding="UTF-8" standalone="no"?><!DOCTYPE svg PUBLIC "-//W3C//DTD SVG 1.1//EN" "http://www.w3.org/Graphics/SVG/1.1/DTD/svg11.dtd"><svg width="100%" height="100%" viewBox="0 0 112 102" version="1.1" xmlns="http://www.w3.org/2000/svg" xmlns:xlink="http://www.w3.org/1999/xlink" xml:space="preserve" xmlns:serif="http://www.serif.com/" style="fill-rule:evenodd;clip-rule:evenodd;stroke-linejoin:round;stroke-miterlimit:2;"><path d="M20.812,0.001c10.31,0.195 19.694,8.964 20.226,19.463c0.217,4.291 -5.003,8.049 -8.487,4.608c-1.946,-1.922 -1.172,-5.135 -2.414,-7.879c-2.727,-6.028 -11.816,-8.08 -16.841,-3.289c-2.06,1.965 -3.245,4.766 -3.263,7.643c0,0 -2.148,6.331 -6.714,4.665c-8.641,-3.154 0.527,-24.693 16.703,-25.206c0.263,-0.005 0.527,-0.007 0.79,-0.005Z"/><path d="M5.683,53.566c5.055,0.895 3.336,8.374 6.842,15.683c5.757,12.004 18.916,18.975 32.19,21.406c15.595,2.856 32.536,0.106 45.119,-9.904c6.763,-5.38 11.922,-13.253 11.959,-22.248c0,0 0.694,-3.85 3.475,-4.741c3.187,-1.021 6.611,1.812 6.514,5.627c-0.523,20.59 -21.622,36.703 -41.23,40.782c-21.902,4.556 -46.748,-1.279 -60.921,-17.413c-5.686,-6.473 -9.369,-14.776 -9.587,-23.369c-0.074,-2.927 1.869,-5.847 5.192,-5.861c0.149,0.012 0.298,0.025 0.447,0.038Z"/><path d="M91.541,0.001c10.31,0.195 19.693,8.965 20.226,19.462c0.214,4.226 -5.028,8.025 -8.487,4.609c-1.947,-1.922 -1.172,-5.135 -2.414,-7.879c-2.729,-6.033 -11.816,-8.08 -16.841,-3.289c-2.06,1.965 -3.245,4.765 -3.263,7.643c0,0 -2.009,6.383 -6.715,4.665c-8.64,-3.155 0.528,-24.692 16.704,-25.206c0.263,-0.005 0.527,-0.007 0.79,-0.005Z"/></svg>